<svg version="1.2" baseProfile="tiny-ps" xmlns="http://www.w3.org/2000/svg" viewBox="0 0 96 96" width="96" height="96">
	<title>noun_videogame cross_1825748-svg</title>
	<style>
		tspan { white-space:pre }
		.shp0 { fill: #f2f6ff } 
	</style>
	<g id="Layer">
		<path id="Layer" fill-rule="evenodd" class="shp0" d="M48 43.24L28.95 24.19L28.95 0.38L67.05 0.38L67.05 24.19L48 43.24ZM33.71 22.22L48 36.5L62.28 22.22L62.28 5.14L33.71 5.14L33.71 22.22ZM48 52.76L67.05 71.81L67.05 95.62L28.95 95.62L28.95 71.81L48 52.76ZM62.28 73.78L48 59.49L33.71 73.78L33.71 90.86L62.28 90.86L62.28 73.78ZM95.62 28.95L95.62 67.05L71.81 67.05L52.76 48L71.81 28.95L95.62 28.95ZM90.86 33.71L73.78 33.71L59.5 48L73.78 62.28L90.86 62.28L90.86 33.71ZM43.24 48L24.19 67.05L0.38 67.05L0.38 28.95L24.19 28.95L43.24 48ZM36.5 48L22.22 33.71L5.14 33.71L5.14 62.28L22.22 62.28L36.5 48Z" />
	</g>
</svg>